<svg width="30" height="30" fill="none" xmlns="http://www.w3.org/2000/svg"><rect width="30" height="30" rx="15" fill="#000"/><path d="M23.201 11.613a5.984 5.984 0 00-.384-2.031 4.225 4.225 0 00-2.413-2.414 6.056 6.056 0 00-2.004-.385c-.882-.04-1.162-.05-3.4-.05-2.239 0-2.525 0-3.4.05a6.056 6.056 0 00-2.004.385 4.223 4.223 0 00-2.413 2.414 6.008 6.008 0 00-.384 2.002c-.04.883-.052 1.163-.052 3.401 0 2.239 0 2.525.052 3.401a6.03 6.03 0 00.384 2.005 4.226 4.226 0 002.414 2.413c.64.25 1.317.39 2.003.412.883.04 1.162.051 3.4.051 2.24 0 2.526 0 3.402-.051a6.04 6.04 0 002.004-.384 4.23 4.23 0 002.413-2.414 6.04 6.04 0 00.384-2.004c.04-.882.052-1.162.052-3.401-.002-2.239-.002-2.523-.054-3.4zm-8.207 7.605a4.237 4.237 0 01-4.237-4.237 4.237 4.237 0 114.238 4.237zm4.407-7.644a.988.988 0 11-.001-1.976.988.988 0 010 1.976z" fill="#F5F5F5"/><path d="M14.995 17.733a2.753 2.753 0 100-5.505 2.753 2.753 0 000 5.505z" fill="#F5F5F5"/></svg>