<svg width="30" height="30" fill="none" xmlns="http://www.w3.org/2000/svg"><rect width="30" height="30" rx="15" fill="#000"/><path fill-rule="evenodd" clip-rule="evenodd" d="M24.541 9.813c.139-.468 0-.813-.662-.813H21.69c-.556 0-.813.297-.952.626 0 0-1.113 2.74-2.688 4.519-.51.516-.742.68-1.02.68-.14 0-.349-.164-.349-.633v-4.38c0-.562-.153-.812-.616-.812h-3.44c-.348 0-.557.26-.557.508 0 .533.788.656.87 2.154v3.256c0 .714-.128.843-.407.843-.741 0-2.545-2.752-3.616-5.901-.208-.613-.418-.86-.977-.86H5.75c-.625 0-.75.297-.75.626 0 .584.742 3.488 3.454 7.33C10.262 19.577 12.808 21 15.127 21c1.391 0 1.563-.315 1.563-.86v-1.982c0-.632.131-.758.572-.758.325 0 .881.165 2.18 1.429C20.924 20.328 21.168 21 22.003 21h2.187c.625 0 .939-.315.759-.94-.199-.62-.907-1.52-1.846-2.59-.51-.608-1.275-1.264-1.508-1.592-.324-.421-.231-.609 0-.983 0 0 2.667-3.794 2.944-5.082h.001z" fill="#fff"/></svg>